<svg width="48" height="44" viewBox="0 0 48 44" fill="none" xmlns="http://www.w3.org/2000/svg">
<path d="M46.5938 3.71875H41.3858C40.3059 2.85634 37.3358 0.90625 32.4375 0.90625C28.1667 0.90625 25.3711 2.39144 24 3.34675C22.6289 2.39144 19.8333 0.90625 15.5625 0.90625C10.6642 0.90625 7.69406 2.85634 6.61416 3.71875H1.40625C0.628969 3.71875 0 4.34772 0 5.125V38.875C0 39.6523 0.628969 40.2812 1.40625 40.2812H20.0215C20.6024 41.9182 22.1666 43.0938 24 43.0938C25.8334 43.0938 27.3975 41.9182 27.9785 40.2812H46.5938C47.371 40.2812 48 39.6523 48 38.875V5.125C48 4.34772 47.371 3.71875 46.5938 3.71875ZM25.4062 5.78003C26.3017 5.11131 28.6252 3.71875 32.4375 3.71875C36.2801 3.71875 38.589 5.12153 39.4688 5.78416V30.6296C37.8936 29.8276 35.5528 29.0312 32.4375 29.0312C29.327 29.0312 26.9814 29.825 25.4062 30.6257V5.78003ZM8.53125 5.78416C9.411 5.12153 11.7199 3.71875 15.5625 3.71875C19.4121 3.71875 21.7214 5.12669 22.5938 5.7835V30.6296C21.0186 29.8276 18.6778 29.0312 15.5625 29.0312C12.452 29.0312 10.1064 29.825 8.53125 30.6257V5.78416ZM45.1875 37.4688H26.8125C26.0352 37.4688 25.4062 38.0977 25.4062 38.875C25.4062 39.6509 24.7759 40.2812 24 40.2812C23.2241 40.2812 22.5938 39.6509 22.5938 38.875C22.5938 38.0977 21.9648 37.4688 21.1875 37.4688H2.8125V6.53125H5.71875V33.25C5.71875 33.8145 6.06066 34.3212 6.58116 34.5409C7.10166 34.762 7.70859 34.6453 8.11097 34.2526C8.21269 34.1537 10.653 31.8438 15.5625 31.8438C20.472 31.8438 22.9123 34.1537 23.0139 34.2525C23.5742 34.8044 24.4945 34.7143 24.9674 34.2621C24.9727 34.2572 24.9808 34.2575 24.986 34.2525C25.0877 34.1537 27.528 31.8438 32.4375 31.8438C37.341 31.8438 39.7803 34.1471 39.8794 34.2431C40.2585 34.6232 40.8569 34.7777 41.412 34.5482C41.9414 34.3291 42.2812 33.81 42.2812 33.25V6.53125H45.1875V37.4688Z" fill="url(#paint0_linear)"/>
<defs>
<linearGradient id="paint0_linear" x1="24" y1="43.0938" x2="24" y2="0.90625" gradientUnits="userSpaceOnUse">
<stop stop-color="#5F7CFB"/>
<stop offset="1" stop-color="#A4C2F7"/>
</linearGradient>
</defs>
</svg>
