<svg width="48" height="42" viewBox="0 0 48 42" fill="none" xmlns="http://www.w3.org/2000/svg">
<path d="M24 18.8906C17.7967 18.8906 12.75 23.9374 12.75 30.1406C12.75 36.3439 17.7967 41.3906 24 41.3906C30.2033 41.3906 35.25 36.3439 35.25 30.1406C35.25 23.9374 30.2033 18.8906 24 18.8906ZM24 38.5781C19.3476 38.5781 15.5625 34.7931 15.5625 30.1406C15.5625 25.4882 19.3476 21.7031 24 21.7031C28.6524 21.7031 32.4375 25.4882 32.4375 30.1406C32.4375 34.7931 28.6524 38.5781 24 38.5781ZM26.8125 27.3281C27.5891 27.3281 28.2188 26.6985 28.2188 25.9219C28.2188 25.1453 27.5891 24.5156 26.8125 24.5156C26.0359 24.5156 25.4062 25.1453 25.4062 25.9219C25.4062 26.6985 26.0359 27.3281 26.8125 27.3281ZM21.1875 27.3281C21.9641 27.3281 22.5938 26.6985 22.5938 25.9219C22.5938 25.1453 21.9641 24.5156 21.1875 24.5156C20.4109 24.5156 19.7812 25.1453 19.7812 25.9219C19.7812 26.6985 20.4109 27.3281 21.1875 27.3281ZM28.2188 6.60872V2.01562C28.2188 1.239 27.5891 0.609375 26.8125 0.609375H21.1875C20.4109 0.609375 19.7812 1.239 19.7812 2.01562V6.60872C8.51831 8.62247 0 18.4719 0 30.1406C0 30.9172 0.629625 31.5469 1.40625 31.5469H8.53125C9.30787 31.5469 9.9375 30.9172 9.9375 30.1406C9.9375 22.3359 16.2984 16.0781 24 16.0781C31.797 16.0781 38.0625 22.4333 38.0625 30.1406C38.0625 30.9172 38.6921 31.5469 39.4688 31.5469H46.5938C47.3704 31.5469 48 30.9172 48 30.1406C48 18.4688 39.479 8.622 28.2188 6.60872ZM22.5938 3.42188H25.4062V7.05816L24 8.46441L22.5938 7.05816V3.42188ZM7.18303 28.7344H2.85919C3.1755 23.9777 5.08603 19.6192 8.08903 16.2183L11.1208 19.2501C8.91413 21.8557 7.48134 25.1363 7.18303 28.7344ZM24 13.2656C19.8528 13.2656 16.0503 14.7698 13.109 17.2608L10.0862 14.238C13.0437 11.6701 16.7353 9.89953 20.8418 9.28369L23.0056 11.4474C23.2802 11.722 23.64 11.8594 23.9999 11.8594C24.3597 11.8594 24.7197 11.722 24.9942 11.4475L27.1581 9.28369C31.2646 9.89953 34.9562 11.6702 37.9137 14.238L34.8909 17.2608C31.9498 14.7698 28.1473 13.2656 24 13.2656ZM40.817 28.7344C40.5187 25.1363 39.0859 21.8557 36.8792 19.2501L39.911 16.2182C42.914 19.6192 44.8245 23.9776 45.1408 28.7343H40.817V28.7344ZM28.4477 30.2215C27.7161 29.962 26.912 30.345 26.6525 31.077C26.2545 32.1992 25.1887 32.9531 24 32.9531C22.8113 32.9531 21.7455 32.1992 21.3476 31.077C21.088 30.345 20.2843 29.9619 19.5523 30.2215C18.8203 30.4811 18.4373 31.2848 18.6968 32.0168C19.4918 34.2591 21.623 35.7656 24 35.7656C26.3771 35.7656 28.5082 34.2591 29.3032 32.0168C29.5627 31.2847 29.1797 30.481 28.4477 30.2215Z" fill="url(#paint0_linear)"/>
<defs>
<linearGradient id="paint0_linear" x1="24" y1="41.3906" x2="24" y2="0.609375" gradientUnits="userSpaceOnUse">
<stop stop-color="#5F7CFB"/>
<stop offset="1" stop-color="#A4C2F7"/>
</linearGradient>
</defs>
</svg>
