<svg width="48" height="48" viewBox="0 0 48 48" fill="none" xmlns="http://www.w3.org/2000/svg">
<path d="M12.75 28.2188H18.375C19.1516 28.2188 19.7812 28.8484 19.7812 29.625C19.7812 30.4016 19.1516 31.0312 18.375 31.0312H12.75C11.9734 31.0312 11.3438 30.4016 11.3438 29.625C11.3438 28.8484 11.9734 28.2188 12.75 28.2188ZM18.375 33.8438H12.75C11.9734 33.8438 11.3438 34.4734 11.3438 35.25C11.3438 36.0266 11.9734 36.6562 12.75 36.6562H18.375C19.1516 36.6562 19.7812 36.0266 19.7812 35.25C19.7812 34.4734 19.1516 33.8438 18.375 33.8438ZM35.25 16.9688H29.625C28.8484 16.9688 28.2188 17.5984 28.2188 18.375C28.2188 19.1516 28.8484 19.7812 29.625 19.7812H35.25C36.0266 19.7812 36.6562 19.1516 36.6562 18.375C36.6562 17.5984 36.0266 16.9688 35.25 16.9688ZM36.4351 24.6774C41.0479 27.3578 44.1562 32.3541 44.1562 38.0625V42.75C44.1562 43.5266 43.5266 44.1562 42.75 44.1562H38.0625C32.3541 44.1562 27.3578 41.0479 24.6774 36.4351C22.6069 43.1257 16.3618 48 9 48H1.40625C0.629625 48 0 47.3704 0 46.5938V39C0 31.6382 4.87434 25.3931 11.5649 23.3226C6.95213 20.6423 3.84375 15.6459 3.84375 9.9375V5.25C3.84375 4.47337 4.47337 3.84375 5.25 3.84375H9.9375C15.6459 3.84375 20.6423 6.95213 23.3226 11.5649C25.3931 4.87434 31.6382 0 39 0H46.5938C47.3704 0 48 0.629625 48 1.40625V9C48 16.3618 43.1257 22.6069 36.4351 24.6774ZM22.5938 25.4062H16.4062C8.91066 25.4062 2.8125 31.5044 2.8125 39V45.1875H9C16.4956 45.1875 22.5938 39.0893 22.5938 31.5938V25.4062ZM22.5938 19.3125C22.5938 12.3338 16.9162 6.65625 9.9375 6.65625H6.65625V9.9375C6.65625 16.9162 12.3338 22.5938 19.3125 22.5938H22.5938V19.3125ZM28.6875 25.4062H25.4062V28.6875C25.4062 35.6662 31.0838 41.3438 38.0625 41.3438H41.3438V38.0625C41.3438 31.0838 35.6662 25.4062 28.6875 25.4062ZM45.1875 9V2.8125H39C31.5044 2.8125 25.4062 8.91066 25.4062 16.4062V22.5938H28.6875H31.5938C39.0893 22.5938 45.1875 16.4956 45.1875 9ZM35.25 11.3438H29.625C28.8484 11.3438 28.2188 11.9734 28.2188 12.75C28.2188 13.5266 28.8484 14.1562 29.625 14.1562H35.25C36.0266 14.1562 36.6562 13.5266 36.6562 12.75C36.6562 11.9734 36.0266 11.3438 35.25 11.3438Z" fill="url(#paint0_linear)"/>
<defs>
<linearGradient id="paint0_linear" x1="24" y1="48" x2="24" y2="0" gradientUnits="userSpaceOnUse">
<stop stop-color="#5F7CFB"/>
<stop offset="1" stop-color="#A4C2F7"/>
</linearGradient>
</defs>
</svg>
