<svg width="48" height="48" viewBox="0 0 48 48" fill="none" xmlns="http://www.w3.org/2000/svg">
<path d="M9.9375 25.3125H15.5625C16.3391 25.3125 16.9688 24.6829 16.9688 23.9062V18.2812C16.9688 17.5046 16.3391 16.875 15.5625 16.875H9.9375C9.16088 16.875 8.53125 17.5046 8.53125 18.2812V23.9062C8.53125 24.6829 9.16088 25.3125 9.9375 25.3125ZM11.3438 19.6875H14.1562V22.5H11.3438V19.6875ZM32.4375 25.3125H38.0625C38.8391 25.3125 39.4688 24.6829 39.4688 23.9062V7.03125C39.4688 6.25462 38.8391 5.625 38.0625 5.625H32.4375C31.6609 5.625 31.0312 6.25462 31.0312 7.03125V23.9062C31.0312 24.6829 31.6609 25.3125 32.4375 25.3125ZM33.8438 8.4375H36.6562V22.5H33.8438V8.4375ZM46.5938 28.125H45.1875V2.8125H46.5938C47.3704 2.8125 48 2.18288 48 1.40625C48 0.629625 47.3704 0 46.5938 0C45.0044 0 2.99184 0 1.40625 0C0.629625 0 0 0.629625 0 1.40625C0 2.18288 0.629625 2.8125 1.40625 2.8125H2.8125V28.125H1.40625C0.629625 28.125 0 28.7546 0 29.5312C0 30.3079 0.629625 30.9375 1.40625 30.9375H22.5938V37.5738L14.5682 45.5993C14.019 46.1485 14.019 47.0389 14.5682 47.5881C15.1173 48.1372 16.0077 48.1372 16.5569 47.5881L22.5938 41.5512V46.5938C22.5938 47.3704 23.2234 48 24 48C24.7766 48 25.4062 47.3704 25.4062 46.5938V41.5512L31.4432 47.5882C31.9923 48.1372 32.8827 48.1373 33.4319 47.5882C33.9811 47.039 33.9811 46.1486 33.4319 45.5994L25.4062 37.5738V30.9375H46.5938C47.3704 30.9375 48 30.3079 48 29.5312C48 28.7546 47.3704 28.125 46.5938 28.125ZM42.375 28.125H5.625V2.8125H42.375V28.125ZM21.1875 25.3125H26.8125C27.5891 25.3125 28.2188 24.6829 28.2188 23.9062V12.6562C28.2188 11.8796 27.5891 11.25 26.8125 11.25H21.1875C20.4109 11.25 19.7812 11.8796 19.7812 12.6562V23.9062C19.7812 24.6829 20.4109 25.3125 21.1875 25.3125ZM22.5938 14.0625H25.4062V22.5H22.5938V14.0625Z" fill="url(#paint0_linear)"/>
<defs>
<linearGradient id="paint0_linear" x1="24" y1="48" x2="24" y2="0" gradientUnits="userSpaceOnUse">
<stop stop-color="#5F7CFB"/>
<stop offset="1" stop-color="#A4C2F7"/>
</linearGradient>
</defs>
</svg>
