<svg width="46" height="48" viewBox="0 0 46 48" fill="none" xmlns="http://www.w3.org/2000/svg">
<path d="M4.71875 21.0938H1.90625C1.12962 21.0938 0.5 21.7234 0.5 22.5C0.5 23.2766 1.12962 23.9062 1.90625 23.9062H4.71875C5.49538 23.9062 6.125 23.2766 6.125 22.5C6.125 21.7234 5.49538 21.0938 4.71875 21.0938ZM9.07888 10.5676C9.62797 11.1167 10.5184 11.1168 11.0676 10.5676C11.6168 10.0184 11.6168 9.12806 11.0676 8.57888L9.07888 6.59016C8.52978 6.04097 7.63934 6.04097 7.09016 6.59016C6.54097 7.13934 6.54097 8.02969 7.09016 8.57888L9.07888 10.5676ZM23 5.625C23.7766 5.625 24.4062 4.99538 24.4062 4.21875V1.40625C24.4062 0.629625 23.7766 0 23 0C22.2234 0 21.5938 0.629625 21.5938 1.40625V4.21875C21.5938 4.99538 22.2234 5.625 23 5.625ZM9.07888 33.8699L7.09016 35.8586C6.54097 36.4078 6.54097 37.2982 7.09016 37.8473C7.63925 38.3964 8.52969 38.3965 9.07888 37.8473L11.0676 35.8586C11.6168 35.3094 11.6168 34.4191 11.0676 33.8699C10.5184 33.3207 9.62797 33.3207 9.07888 33.8699ZM36.9212 6.59006L34.9325 8.57878C34.3833 9.12797 34.3833 10.0183 34.9325 10.5675C35.4816 11.1166 36.372 11.1167 36.9212 10.5675L38.9099 8.57878C39.4591 8.02959 39.4591 7.13925 38.9099 6.59006C38.3607 6.04087 37.4703 6.04087 36.9212 6.59006ZM44.0938 21.0938H41.2812C40.5046 21.0938 39.875 21.7234 39.875 22.5C39.875 23.2766 40.5046 23.9062 41.2812 23.9062H44.0938C44.8704 23.9062 45.5 23.2766 45.5 22.5C45.5 21.7234 44.8704 21.0938 44.0938 21.0938ZM23 22.5C20.6738 22.5 18.7812 24.3925 18.7812 26.7188C18.7812 28.552 19.957 30.1151 21.5938 30.6956V34.5938C21.5938 35.3704 22.2234 36 23 36C23.7766 36 24.4062 35.3704 24.4062 34.5938V30.6956C26.043 30.1151 27.2188 28.552 27.2188 26.7188C27.2188 24.3925 25.3262 22.5 23 22.5ZM23 28.125C22.2246 28.125 21.5938 27.4942 21.5938 26.7188C21.5938 25.9433 22.2246 25.3125 23 25.3125C23.7754 25.3125 24.4062 25.9433 24.4062 26.7188C24.4062 27.4942 23.7754 28.125 23 28.125ZM37.0625 22.5C37.0625 18.248 35.1685 14.2692 31.866 11.5839C28.564 8.89903 24.2354 7.86637 19.9899 8.75109C14.5362 9.88762 10.1927 14.345 9.18191 19.8428C8.60038 23.0059 9.05619 26.1545 10.5001 28.9483C11.7304 31.3288 13.6528 33.3375 15.9688 34.6803V43.7812C15.9688 46.1075 17.8613 48 20.1875 48H25.8125C28.1387 48 30.0312 46.1075 30.0312 43.7812V34.681C32.0003 33.5428 33.6693 31.9414 34.8918 30.009C36.3118 27.7643 37.0625 25.1677 37.0625 22.5ZM27.2188 43.7812C27.2188 44.5567 26.5879 45.1875 25.8125 45.1875H20.1875C19.4121 45.1875 18.7812 44.5567 18.7812 43.7812V42.375H27.2188V43.7812ZM27.9991 32.5814C27.521 32.819 27.2188 33.3068 27.2188 33.8407V39.5625H18.7812V33.8407C18.7812 33.3068 18.4789 32.819 18.0009 32.5813C13.4513 30.3203 11.0189 25.4055 11.9482 20.3514C12.7545 15.9656 16.2168 12.4102 20.5637 11.5044C21.3672 11.337 22.1736 11.2547 22.9721 11.2547C25.5654 11.2547 28.0714 12.1234 30.0917 13.7661C32.7343 15.9149 34.25 19.0983 34.25 22.5C34.25 26.8023 31.8549 30.6653 27.9991 32.5814ZM36.9211 33.8699C36.372 33.3207 35.4816 33.3207 34.9324 33.8699C34.3832 34.4191 34.3832 35.3094 34.9324 35.8586L36.9211 37.8473C37.4702 38.3964 38.3607 38.3965 38.9098 37.8473C39.459 37.2982 39.459 36.4078 38.9098 35.8586L36.9211 33.8699Z" fill="url(#paint0_linear)"/>
<defs>
<linearGradient id="paint0_linear" x1="23" y1="48" x2="23" y2="0" gradientUnits="userSpaceOnUse">
<stop stop-color="#5F7CFB"/>
<stop offset="1" stop-color="#A4C2F7"/>
</linearGradient>
</defs>
</svg>
