<svg width="48" height="46" viewBox="0 0 48 46" fill="none" xmlns="http://www.w3.org/2000/svg">
<path d="M20.0994 5.71311C20.6485 6.2622 21.539 6.2623 22.0882 5.71311C22.6373 5.16392 22.6373 4.27358 22.0882 3.72439L19.2757 0.911891C18.7266 0.362703 17.8361 0.362703 17.2869 0.911891C16.7377 1.46108 16.7377 2.35142 17.2869 2.90061L20.0994 5.71311ZM20.0994 40.2869L17.2869 43.0994C16.7377 43.6486 16.7377 44.5389 17.2869 45.0881C17.836 45.6372 18.7265 45.6373 19.2757 45.0881L22.0882 42.2756C22.6373 41.7264 22.6373 40.8361 22.0882 40.2869C21.539 39.7376 20.6485 39.7376 20.0994 40.2869ZM27.7131 5.71311L30.5256 2.90061C31.0747 2.35142 31.0747 1.46108 30.5256 0.911891C29.9765 0.362703 29.086 0.362703 28.5368 0.911891L25.7243 3.72439C25.1752 4.27358 25.1752 5.16392 25.7243 5.71311C26.2734 6.2622 27.164 6.2623 27.7131 5.71311ZM27.7131 40.2869C27.164 39.7377 26.2735 39.7377 25.7243 40.2869C25.1752 40.8361 25.1752 41.7264 25.7243 42.2756L28.5368 45.0881C29.0859 45.6372 29.9764 45.6373 30.5256 45.0881C31.0747 44.5389 31.0747 43.6486 30.5256 43.0994L27.7131 40.2869ZM43.7812 18.7812H42.375V13.1562C42.375 12.3796 41.7454 11.75 40.9688 11.75H36.5625V10.3437C36.5625 8.01748 34.67 6.12495 32.3438 6.12495C30.0175 6.12495 28.125 8.01748 28.125 10.3437V11.75H23.9062H7.03125C6.25462 11.75 5.625 12.3796 5.625 13.1562V18.7812H4.21875C1.89253 18.7812 0 20.6737 0 23C0 25.3262 1.89253 27.2187 4.21875 27.2187H5.625V32.8437C5.625 33.6203 6.25462 34.25 7.03125 34.25H11.25V35.6562C11.25 37.9824 13.1425 39.875 15.4688 39.875C17.795 39.875 19.6875 37.9824 19.6875 35.6562V34.25H23.9062H40.9688C41.7454 34.25 42.375 33.6203 42.375 32.8437V27.2187H43.7812C46.1075 27.2187 48 25.3262 48 23C48 20.6737 46.1075 18.7812 43.7812 18.7812ZM22.5 31.4375H18.2812C17.5046 31.4375 16.875 32.0671 16.875 32.8437V35.6562C16.875 36.4316 16.2442 37.0625 15.4688 37.0625C14.6933 37.0625 14.0625 36.4316 14.0625 35.6562V32.8437C14.0625 32.0671 13.4329 31.4375 12.6562 31.4375H8.4375V25.8125C8.4375 25.0358 7.80788 24.4062 7.03125 24.4062H4.21875C3.44334 24.4062 2.8125 23.7754 2.8125 23C2.8125 22.2245 3.44334 21.5937 4.21875 21.5937H7.03125C7.80788 21.5937 8.4375 20.9641 8.4375 20.1875V14.5625H22.5V18.7812H21.0938C18.7675 18.7812 16.875 20.6737 16.875 23C16.875 25.3262 18.7675 27.2187 21.0938 27.2187H22.5V31.4375ZM43.7812 24.4062H40.9688C40.1921 24.4062 39.5625 25.0358 39.5625 25.8125V31.4375H25.3125V25.8125C25.3125 25.0358 24.6829 24.4062 23.9062 24.4062H21.0938C20.3183 24.4062 19.6875 23.7754 19.6875 23C19.6875 22.2245 20.3183 21.5937 21.0938 21.5937H23.9062C24.6829 21.5937 25.3125 20.9641 25.3125 20.1875V14.5625H29.5312C30.3079 14.5625 30.9375 13.9328 30.9375 13.1562V10.3437C30.9375 9.5683 31.5683 8.93745 32.3438 8.93745C33.1192 8.93745 33.75 9.5683 33.75 10.3437V13.1562C33.75 13.9328 34.3796 14.5625 35.1562 14.5625H39.5625V20.1875C39.5625 20.9641 40.1921 21.5937 40.9688 21.5937H43.7812C44.5567 21.5937 45.1875 22.2245 45.1875 23C45.1875 23.7754 44.5567 24.4062 43.7812 24.4062Z" fill="url(#paint0_linear)"/>
<defs>
<linearGradient id="paint0_linear" x1="24" y1="45.5" x2="24" y2="0.5" gradientUnits="userSpaceOnUse">
<stop stop-color="#5F7CFB"/>
<stop offset="1" stop-color="#A4C2F7"/>
</linearGradient>
</defs>
</svg>
