<svg width="48" height="44" viewBox="0 0 48 44" fill="none" xmlns="http://www.w3.org/2000/svg">
<path d="M18.2812 23.4062H1.40625C0.629625 23.4062 0 24.0359 0 24.8125V33.25C0 34.0266 0.629625 34.6562 1.40625 34.6562H8.4375V41.6875C8.4375 42.4641 9.06713 43.0938 9.84375 43.0938H12.6562C14.9825 43.0938 16.875 41.2012 16.875 38.875V37.4688H18.2812C20.6075 37.4688 22.5 35.5762 22.5 33.25V27.625C22.5 25.2988 20.6075 23.4062 18.2812 23.4062ZM5.625 31.8438H2.8125V26.2188H5.625V31.8438ZM19.6875 33.25C19.6875 34.0254 19.0567 34.6562 18.2812 34.6562H15.4688C14.6921 34.6562 14.0625 35.2859 14.0625 36.0625V38.875C14.0625 39.6504 13.4317 40.2812 12.6562 40.2812H11.25V33.25C11.25 32.4734 10.6204 31.8438 9.84375 31.8438H8.4375V26.2188H18.2812C19.0567 26.2188 19.6875 26.8496 19.6875 27.625V33.25ZM18.2812 6.53125H16.875V5.125C16.875 2.79878 14.9825 0.90625 12.6562 0.90625H9.84375C9.06713 0.90625 8.4375 1.53587 8.4375 2.3125V9.34375H1.40625C0.629625 9.34375 0 9.97338 0 10.75V19.1875C0 19.9641 0.629625 20.5938 1.40625 20.5938H18.2812C20.6075 20.5938 22.5 18.7012 22.5 16.375V10.75C22.5 8.42378 20.6075 6.53125 18.2812 6.53125ZM5.625 17.7812H2.8125V12.1562H5.625V17.7812ZM19.6875 16.375C19.6875 17.1504 19.0567 17.7812 18.2812 17.7812H8.4375V12.1562H9.84375C10.6204 12.1562 11.25 11.5266 11.25 10.75V3.71875H12.6562C13.4317 3.71875 14.0625 4.34959 14.0625 5.125V7.9375C14.0625 8.71413 14.6921 9.34375 15.4688 9.34375H18.2812C19.0567 9.34375 19.6875 9.97459 19.6875 10.75V16.375ZM46.5938 23.4062H26.7188C25.9421 23.4062 25.3125 24.0359 25.3125 24.8125V30.4375C25.3125 31.2141 25.9421 31.8438 26.7188 31.8438H46.5938C47.3704 31.8438 48 31.2141 48 30.4375V24.8125C48 24.0359 47.3704 23.4062 46.5938 23.4062ZM30.9375 29.0312H28.125V26.2188H30.9375V29.0312ZM45.1875 29.0312H33.75V26.2188H45.1875V29.0312ZM46.5938 12.1562H26.7188C25.9421 12.1562 25.3125 12.7859 25.3125 13.5625V19.1875C25.3125 19.9641 25.9421 20.5938 26.7188 20.5938H46.5938C47.3704 20.5938 48 19.9641 48 19.1875V13.5625C48 12.7859 47.3704 12.1562 46.5938 12.1562ZM39.375 17.7812H28.125V14.9688H39.375V17.7812ZM45.1875 17.7812H42.1875V14.9688H45.1875V17.7812Z" fill="url(#paint0_linear)"/>
<defs>
<linearGradient id="paint0_linear" x1="24" y1="43.0938" x2="24" y2="0.90625" gradientUnits="userSpaceOnUse">
<stop stop-color="#5F7CFB"/>
<stop offset="1" stop-color="#A4C2F7"/>
</linearGradient>
</defs>
</svg>
