<svg width="44" height="48" viewBox="0 0 44 48" fill="none" xmlns="http://www.w3.org/2000/svg">
<path d="M9.7552 15.0569C10.0298 15.3315 10.3897 15.4688 10.7495 15.4688C11.1093 15.4688 11.4693 15.3315 11.7438 15.0569L17.3688 9.43191C17.918 8.88272 17.918 7.99237 17.3688 7.44319C16.8197 6.894 15.9293 6.894 15.3801 7.44319L10.7494 12.0739L8.93123 10.2557C8.38214 9.7065 7.4917 9.7065 6.94251 10.2557C6.39332 10.8049 6.39332 11.6952 6.94251 12.2444L9.7552 15.0569ZM5.12451 22.5H19.187C21.5132 22.5 23.4058 20.6075 23.4058 18.2812V4.21875C23.4058 1.89253 21.5132 0 19.187 0H5.12451C2.79829 0 0.905762 1.89253 0.905762 4.21875V18.2812C0.905762 20.6075 2.7982 22.5 5.12451 22.5ZM3.71826 4.21875C3.71826 3.44334 4.34911 2.8125 5.12451 2.8125H19.187C19.9624 2.8125 20.5933 3.44334 20.5933 4.21875V18.2812C20.5933 19.0567 19.9624 19.6875 19.187 19.6875H5.12451C4.34911 19.6875 3.71826 19.0567 3.71826 18.2812V4.21875ZM41.8575 12.6731C40.2127 11.0283 37.5362 11.0283 35.8914 12.6731L21.9918 26.5727C21.2332 25.8987 20.2395 25.5 19.187 25.5H5.12451C2.79829 25.5 0.905762 27.3925 0.905762 29.7188V43.7812C0.905762 46.1075 2.79829 48 5.12451 48H19.187C21.5132 48 23.4058 46.1075 23.4058 43.7812V37.0913L41.8575 18.6394C43.5064 16.9905 43.5064 14.322 41.8575 12.6731ZM20.5933 43.7812C20.5933 44.5567 19.9624 45.1875 19.187 45.1875H5.12451C4.34911 45.1875 3.71826 44.5567 3.71826 43.7812V29.7188C3.71826 28.9433 4.34911 28.3125 5.12451 28.3125H19.187C19.4819 28.3125 19.7627 28.4064 19.995 28.5696L15.3802 33.1844C13.3009 35.2637 12.1558 38.0282 12.1558 40.9688C12.1558 41.7454 12.7854 42.375 13.562 42.375C16.1604 42.375 18.621 41.4802 20.5933 39.8376V43.7812ZM19.3576 37.1618C18.182 38.3375 16.712 39.112 15.114 39.4166C15.4187 37.8187 16.1932 36.3487 17.3688 35.173L24.8117 27.7301L26.8004 29.7188C25.6157 30.9038 21.3764 35.1432 19.3576 37.1618ZM39.8688 16.6507L28.7893 27.7302L26.8005 25.7415L37.8802 14.6619C38.4285 14.1138 39.3206 14.1135 39.8689 14.6619C40.4185 15.2115 40.4185 16.101 39.8688 16.6507Z" fill="url(#paint0_linear)"/>
<defs>
<linearGradient id="paint0_linear" x1="22" y1="48" x2="22" y2="0" gradientUnits="userSpaceOnUse">
<stop stop-color="#5F7CFB"/>
<stop offset="1" stop-color="#A4C2F7"/>
</linearGradient>
</defs>
</svg>
