<svg width="44" height="48" viewBox="0 0 44 48" fill="none" xmlns="http://www.w3.org/2000/svg">
<path d="M27.625 33.8438C28.4016 33.8438 29.0312 33.2141 29.0312 32.4375C29.0312 31.6609 28.4016 31.0312 27.625 31.0312H23.4062V29.625C23.4062 28.8484 22.7766 28.2188 22 28.2188C21.2234 28.2188 20.5938 28.8484 20.5938 29.625V31.0312H16.375C15.5984 31.0312 14.9688 31.6609 14.9688 32.4375C14.9688 33.2141 15.5984 33.8438 16.375 33.8438H17.8821C18.1334 35.5928 18.8456 37.1948 19.8921 38.522C18.8568 39.1228 17.6558 39.4688 16.375 39.4688C15.5984 39.4688 14.9688 40.0984 14.9688 40.875C14.9688 41.6516 15.5984 42.2812 16.375 42.2812C18.4649 42.2812 20.4045 41.626 22 40.511C23.5955 41.626 25.5351 42.2812 27.625 42.2812C28.4016 42.2812 29.0312 41.6516 29.0312 40.875C29.0312 40.0984 28.4016 39.4688 27.625 39.4688C26.3442 39.4688 25.1433 39.1228 24.1079 38.522C25.1544 37.1948 25.8666 35.5928 26.1179 33.8438H27.625ZM22 36.6514C21.3865 35.8344 20.9464 34.8802 20.7352 33.8438H23.2648C23.0536 34.8802 22.6135 35.8344 22 36.6514ZM41.6875 16.9688H37.4688V1.40625C37.4688 0.629625 36.8391 0 36.0625 0H5.125C2.79878 0 0.90625 1.89253 0.90625 4.21875V43.7812C0.90625 46.1075 2.79878 48 5.125 48H36.0625C36.8391 48 37.4688 47.3704 37.4688 46.5938V31.0312H41.6875C42.4641 31.0312 43.0938 30.4016 43.0938 29.625V18.375C43.0938 17.5984 42.4641 16.9688 41.6875 16.9688ZM6.53125 45.1875H5.125C4.34959 45.1875 3.71875 44.5567 3.71875 43.7812V4.21875C3.71875 3.44334 4.34959 2.8125 5.125 2.8125H6.53125V45.1875ZM34.6562 45.1875H9.34375V2.8125H34.6562V45.1875ZM40.2812 28.2188H37.4688V19.7812H40.2812V28.2188ZM15.7461 19.6328C16.4407 19.9801 17.2855 19.6986 17.6328 19.004L18.6504 16.9688H25.3497L26.3673 19.0039C26.7139 19.6974 27.558 19.9807 28.2539 19.6327C28.9486 19.2854 29.2301 18.4407 28.8827 17.746L23.2577 6.49603C23.0195 6.01969 22.5327 5.71875 22 5.71875C21.4673 5.71875 20.9805 6.01969 20.7422 6.49613L15.1172 17.7461C14.7699 18.4407 15.0514 19.2855 15.7461 19.6328ZM22 10.2695L23.9434 14.1562H20.0567L22 10.2695ZM13.5625 25.4062H30.4375C31.2141 25.4062 31.8438 24.7766 31.8438 24C31.8438 23.2234 31.2141 22.5938 30.4375 22.5938H13.5625C12.7859 22.5938 12.1562 23.2234 12.1562 24C12.1562 24.7766 12.7859 25.4062 13.5625 25.4062Z" fill="url(#paint0_linear)"/>
<defs>
<linearGradient id="paint0_linear" x1="22" y1="48" x2="22" y2="0" gradientUnits="userSpaceOnUse">
<stop stop-color="#5F7CFB"/>
<stop offset="1" stop-color="#A4C2F7"/>
</linearGradient>
</defs>
</svg>
