<svg width="44" height="48" viewBox="0 0 44 48" fill="none" xmlns="http://www.w3.org/2000/svg">
<path d="M24.8125 33.9375H36.0625C36.8391 33.9375 37.4688 33.3079 37.4688 32.5312C37.4688 31.7546 36.8391 31.125 36.0625 31.125H24.8125C24.0359 31.125 23.4062 31.7546 23.4062 32.5312C23.4062 33.3079 24.0359 33.9375 24.8125 33.9375ZM24.8125 28.3125H36.0625C36.8391 28.3125 37.4688 27.6829 37.4688 26.9062C37.4688 26.1296 36.8391 25.5 36.0625 25.5H24.8125C24.0359 25.5 23.4062 26.1296 23.4062 26.9062C23.4062 27.6829 24.0359 28.3125 24.8125 28.3125ZM24.8125 39.5625H36.0625C36.8391 39.5625 37.4688 38.9329 37.4688 38.1562C37.4688 37.3796 36.8391 36.75 36.0625 36.75H24.8125C24.0359 36.75 23.4062 37.3796 23.4062 38.1562C23.4062 38.9329 24.0359 39.5625 24.8125 39.5625ZM17.7812 26.9062C17.7812 24.58 15.8887 22.6875 13.5625 22.6875C11.2363 22.6875 9.34375 24.58 9.34375 26.9062C9.34375 29.2325 11.2363 31.125 13.5625 31.125C15.8887 31.125 17.7812 29.2325 17.7812 26.9062ZM13.5625 28.3125C12.7871 28.3125 12.1562 27.6817 12.1562 26.9062C12.1562 26.1308 12.7871 25.5 13.5625 25.5C14.3379 25.5 14.9688 26.1308 14.9688 26.9062C14.9688 27.6817 14.3379 28.3125 13.5625 28.3125ZM41.6875 14.25H31.7023C31.1417 11.499 28.9697 9.32719 26.2188 8.76647V1.40625C26.2188 0.629625 25.5891 0 24.8125 0H19.1875C18.4109 0 17.7812 0.629625 17.7812 1.40625V8.76647C15.0302 9.32709 12.8584 11.499 12.2977 14.25H2.3125C1.53587 14.25 0.90625 14.8796 0.90625 15.6562V46.5938C0.90625 47.3704 1.53587 48 2.3125 48H41.6875C42.4641 48 43.0938 47.3704 43.0938 46.5938V15.6562C43.0938 14.8796 42.4641 14.25 41.6875 14.25ZM20.5938 2.8125H23.4062V8.625H20.5938V2.8125ZM19.1875 11.4375H24.8125C26.646 11.4375 28.2099 12.613 28.7903 14.25H15.2097C15.7901 12.613 17.354 11.4375 19.1875 11.4375ZM40.2812 45.1875H3.71875V17.0625H40.2812V45.1875ZM7.9375 39.5625H19.1875C19.9641 39.5625 20.5938 38.9329 20.5938 38.1562C20.5938 34.2792 17.4395 31.125 13.5625 31.125C9.68547 31.125 6.53125 34.2792 6.53125 38.1562C6.53125 38.9329 7.16087 39.5625 7.9375 39.5625ZM13.5625 33.9375C15.396 33.9375 16.9599 35.113 17.5403 36.75H9.58469C10.1651 35.113 11.729 33.9375 13.5625 33.9375Z" fill="url(#paint0_linear)"/>
<defs>
<linearGradient id="paint0_linear" x1="22" y1="48" x2="22" y2="0" gradientUnits="userSpaceOnUse">
<stop stop-color="#5F7CFB"/>
<stop offset="1" stop-color="#A4C2F7"/>
</linearGradient>
</defs>
</svg>
