<svg width="44" height="48" viewBox="0 0 44 48" fill="none" xmlns="http://www.w3.org/2000/svg">
<path d="M26.2188 4.21875C26.2188 1.89253 24.3262 0 22 0C19.6738 0 17.7812 1.89253 17.7812 4.21875C17.7812 6.54497 19.6738 8.4375 22 8.4375C24.3262 8.4375 26.2188 6.54497 26.2188 4.21875ZM22 5.625C21.2246 5.625 20.5938 4.99416 20.5938 4.21875C20.5938 3.44334 21.2246 2.8125 22 2.8125C22.7754 2.8125 23.4062 3.44334 23.4062 4.21875C23.4062 4.99416 22.7754 5.625 22 5.625ZM38.875 39.5625H36.0625H33.25C30.9238 39.5625 29.0312 41.455 29.0312 43.7812V46.5938C29.0312 47.3704 29.6609 48 30.4375 48H41.6875C42.4641 48 43.0938 47.3704 43.0938 46.5938V43.7812C43.0938 41.455 41.2012 39.5625 38.875 39.5625ZM40.2812 45.1875H31.8438V43.7812C31.8438 43.0058 32.4746 42.375 33.25 42.375H38.875C39.6504 42.375 40.2812 43.0058 40.2812 43.7812V45.1875ZM16.375 17.0625H27.625C28.4016 17.0625 29.0312 16.4329 29.0312 15.6562V12.6562C29.0312 10.33 27.1387 8.4375 24.8125 8.4375H22H19.1875C16.8613 8.4375 14.9688 10.33 14.9688 12.6562V15.6562C14.9688 16.4329 15.5984 17.0625 16.375 17.0625ZM17.7812 12.6562C17.7812 11.8808 18.4121 11.25 19.1875 11.25H24.8125C25.5879 11.25 26.2188 11.8808 26.2188 12.6562V14.25H17.7812V12.6562ZM7.9375 28.3125C8.71413 28.3125 9.34375 27.6829 9.34375 26.9062V25.5H34.6562V26.9062C34.6562 27.6829 35.2859 28.3125 36.0625 28.3125C36.8391 28.3125 37.4688 27.6829 37.4688 26.9062V24.0938C37.4688 23.3171 36.8391 22.6875 36.0625 22.6875H23.4062V21.2812C23.4062 20.5046 22.7766 19.875 22 19.875C21.2234 19.875 20.5938 20.5046 20.5938 21.2812V22.6875H7.9375C7.16087 22.6875 6.53125 23.3171 6.53125 24.0938V26.9062C6.53125 27.6829 7.16087 28.3125 7.9375 28.3125ZM10.75 39.5625H7.9375H5.125C2.79878 39.5625 0.90625 41.455 0.90625 43.7812V46.5938C0.90625 47.3704 1.53587 48 2.3125 48H13.5625C14.3391 48 14.9688 47.3704 14.9688 46.5938V43.7812C14.9688 41.455 13.0762 39.5625 10.75 39.5625ZM12.1562 45.1875H3.71875V43.7812C3.71875 43.0058 4.34959 42.375 5.125 42.375H10.75C11.5254 42.375 12.1562 43.0058 12.1562 43.7812V45.1875ZM12.1562 35.3438C12.1562 33.0175 10.2637 31.125 7.9375 31.125C5.61128 31.125 3.71875 33.0175 3.71875 35.3438C3.71875 37.67 5.61128 39.5625 7.9375 39.5625C10.2637 39.5625 12.1562 37.67 12.1562 35.3438ZM7.9375 36.75C7.16209 36.75 6.53125 36.1192 6.53125 35.3438C6.53125 34.5683 7.16209 33.9375 7.9375 33.9375C8.71291 33.9375 9.34375 34.5683 9.34375 35.3438C9.34375 36.1192 8.71291 36.75 7.9375 36.75ZM40.2812 35.3438C40.2812 33.0175 38.3887 31.125 36.0625 31.125C33.7363 31.125 31.8438 33.0175 31.8438 35.3438C31.8438 37.67 33.7363 39.5625 36.0625 39.5625C38.3887 39.5625 40.2812 37.67 40.2812 35.3438ZM36.0625 36.75C35.2871 36.75 34.6562 36.1192 34.6562 35.3438C34.6562 34.5683 35.2871 33.9375 36.0625 33.9375C36.8379 33.9375 37.4688 34.5683 37.4688 35.3438C37.4688 36.1192 36.8379 36.75 36.0625 36.75Z" fill="url(#paint0_linear)"/>
<defs>
<linearGradient id="paint0_linear" x1="22" y1="48" x2="22" y2="0" gradientUnits="userSpaceOnUse">
<stop stop-color="#5F7CFB"/>
<stop offset="1" stop-color="#A4C2F7"/>
</linearGradient>
</defs>
</svg>
